<svg width="19" height="19" viewBox="0 0 19 19" fill="none" xmlns="http://www.w3.org/2000/svg">
<path d="M3.44871 0.501282C1.6547 0.501282 0.184082 1.9719 0.184082 3.76591V15.3177C0.184082 17.1117 1.6547 18.5823 3.44871 18.5823H15.0005C16.7945 18.5823 18.2651 17.1117 18.2651 15.3177V3.76591C18.2651 1.9719 16.7945 0.501282 15.0005 0.501282H3.44871ZM3.44871 2.00803H15.0005C15.9799 2.00803 16.7584 2.78649 16.7584 3.76591V4.51929H1.69083V3.76591C1.69083 2.78649 2.46929 2.00803 3.44871 2.00803ZM1.69083 6.02604H16.7584V15.3177C16.7584 16.2971 15.9799 17.0756 15.0005 17.0756H3.44871C2.46929 17.0756 1.69083 16.2971 1.69083 15.3177V6.02604ZM4.70434 8.53729C4.43793 8.53729 4.18243 8.64312 3.99405 8.8315C3.80567 9.01988 3.69984 9.27538 3.69984 9.54179C3.69984 9.8082 3.80567 10.0637 3.99405 10.2521C4.18243 10.4405 4.43793 10.5463 4.70434 10.5463C4.97075 10.5463 5.22625 10.4405 5.41463 10.2521C5.60301 10.0637 5.70884 9.8082 5.70884 9.54179C5.70884 9.27538 5.60301 9.01988 5.41463 8.8315C5.22625 8.64312 4.97075 8.53729 4.70434 8.53729ZM9.22459 8.53729C8.95818 8.53729 8.70268 8.64312 8.5143 8.8315C8.32592 9.01988 8.22009 9.27538 8.22009 9.54179C8.22009 9.8082 8.32592 10.0637 8.5143 10.2521C8.70268 10.4405 8.95818 10.5463 9.22459 10.5463C9.491 10.5463 9.7465 10.4405 9.93488 10.2521C10.1233 10.0637 10.2291 9.8082 10.2291 9.54179C10.2291 9.27538 10.1233 9.01988 9.93488 8.8315C9.7465 8.64312 9.491 8.53729 9.22459 8.53729ZM13.7448 8.53729C13.4784 8.53729 13.2229 8.64312 13.0346 8.8315C12.8462 9.01988 12.7403 9.27538 12.7403 9.54179C12.7403 9.8082 12.8462 10.0637 13.0346 10.2521C13.2229 10.4405 13.4784 10.5463 13.7448 10.5463C14.0113 10.5463 14.2668 10.4405 14.4551 10.2521C14.6435 10.0637 14.7493 9.8082 14.7493 9.54179C14.7493 9.27538 14.6435 9.01988 14.4551 8.8315C14.2668 8.64312 14.0113 8.53729 13.7448 8.53729ZM9.22459 12.053C8.82498 12.053 8.44173 12.2118 8.15916 12.4944C7.87659 12.7769 7.71784 13.1602 7.71784 13.5598C7.71784 13.9594 7.87659 14.3427 8.15916 14.6252C8.44173 14.9078 8.82498 15.0665 9.22459 15.0665C9.62421 15.0665 10.0075 14.9078 10.29 14.6252C10.5726 14.3427 10.7313 13.9594 10.7313 13.5598C10.7313 13.1602 10.5726 12.7769 10.29 12.4944C10.0075 12.2118 9.62421 12.053 9.22459 12.053ZM4.70434 12.5553C4.43793 12.5553 4.18243 12.6611 3.99405 12.8495C3.80567 13.0379 3.69984 13.2934 3.69984 13.5598C3.69984 13.8262 3.80567 14.0817 3.99405 14.2701C4.18243 14.4585 4.43793 14.5643 4.70434 14.5643C4.97075 14.5643 5.22625 14.4585 5.41463 14.2701C5.60301 14.0817 5.70884 13.8262 5.70884 13.5598C5.70884 13.2934 5.60301 13.0379 5.41463 12.8495C5.22625 12.6611 4.97075 12.5553 4.70434 12.5553Z" fill="#315680"/>
</svg>
