<svg width="17" height="20" viewBox="0 0 17 20" fill="none" xmlns="http://www.w3.org/2000/svg">
<path d="M8.52835 0.582397C5.87402 0.582397 3.70675 2.74967 3.70675 5.404C3.70675 8.05833 5.87402 10.2256 8.52835 10.2256C11.1827 10.2256 13.35 8.05833 13.35 5.404C13.35 2.74967 11.1827 0.582397 8.52835 0.582397ZM8.52835 2.02888C10.4009 2.02888 11.9035 3.53141 11.9035 5.404C11.9035 7.2766 10.4009 8.77913 8.52835 8.77913C6.65575 8.77913 5.15323 7.2766 5.15323 5.404C5.15323 3.53141 6.65575 2.02888 8.52835 2.02888ZM2.73207 12.1543C1.68105 12.1543 0.813782 13.0215 0.813782 14.0725V14.8061C0.813782 16.5439 1.91276 17.8882 3.37243 18.6936C4.83211 19.4989 6.68076 19.8688 8.52835 19.8688C10.3759 19.8688 12.2246 19.4989 13.6843 18.6936C14.9289 18.0069 15.8656 16.9096 16.128 15.5294H16.2439V14.0725C16.2439 13.0215 15.3757 12.1543 14.3246 12.1543H2.73207ZM2.73207 13.6007H14.3246C14.5938 13.6007 14.7974 13.8034 14.7974 14.0725V14.0829H14.7964V14.8061C14.7964 15.9613 14.1476 16.7867 12.9855 17.4279C11.8234 18.069 10.1764 18.4223 8.52835 18.4223C6.88028 18.4223 5.23326 18.069 4.07119 17.4279C2.90912 16.7867 2.26026 15.9613 2.26026 14.8061V14.0725C2.26026 13.8034 2.46293 13.6007 2.73207 13.6007Z" fill="#315680"/>
</svg>
